<svg width="720" height="1321" xmlns="http://www.w3.org/2000/svg"><rect width="720" height="1321" fill="#eaf2fd"/><path d="M399.0,295.0 Q399.0,295.0 394.03888,315.21838 Q389.07773,335.43677 370.46753,357.69232 Q351.8573,379.94788 328.5052,396.33417 Q305.15305,412.72043 279.98892,420.2777 Q254.82481,427.83502 229.55685,429.91748 Q204.28888,431.99997 187.82022,430.39557 Q171.35155,428.79117 161.50342,423.31708 Q151.6553,417.84302 143.86429,408.11676 Q136.07327,398.3905 133.53664,380.53577 Q131.0,362.68106 134.39725,336.29358 Q137.79451,309.90613 148.93494,283.4545 Q160.07538,257.00287 178.14566,234.68431 Q196.21594,212.36575 224.2171,194.12831 Q252.21825,175.89087 286.6594,164.98012 Q321.10052,154.06937 354.8802,154.45886 Q388.65985,154.84836 419.07736,166.32281 Q449.49487,177.79727 477.675,200.82617 Q505.8551,223.85506 528.3854,254.43353 Q550.91565,285.012 562.78125,322.46613 Q574.64685,359.92026 571.0666,402.4875 Q567.4863,445.05475 549.1337,489.38416 Q530.7811,533.71356 502.73303,570.5143 Q474.68494,607.31506 436.88947,632.1967 Q399.094,657.07837 362.17102,666.8385 Q325.24808,676.5986 295.6045,667.844 Q265.96088,659.08936 243.74802,634.8728 Q221.53517,610.65625 204.6047,572.71246 Q187.67426,534.7687 177.8613,486.77118 Q168.04832,438.77368 168.57422,390.41507 Q169.10011,342.05646 170.55005,332.52823 L172.0,323.0 " fill="none" stroke="#000000" stroke-width="12.0" stroke-linecap="round"/><path d="M148.0,448.0 Q148.0,448.0 163.5149,460.581 Q179.02977,473.162 194.1424,480.5551 Q209.25502,487.94827 221.55685,490.56 Q233.85867,493.17175 241.96764,493.58588 Q250.0766,494.0 254.43127,493.70233 Q258.78595,493.40466 261.1812,492.12582 Q263.5765,490.847 262.70032,488.60754 Q261.82416,486.3681 250.85855,483.33026 Q239.89293,480.29242 222.04771,479.94614 Q204.2025,479.59985 189.0904,481.38507 Q173.9783,483.1703 166.5343,485.66708 Q159.09032,488.16388 155.96225,490.16486 Q152.8342,492.16583 151.6671,494.0829 Q150.5,495.99997 153.65079,500.40076 Q156.80159,504.80157 165.01443,509.81607 Q173.22726,514.83057 189.92534,518.75397 Q206.62341,522.67737 229.57518,524.91504 Q252.52695,527.1527 268.61188,529.6344 Q284.69684,532.11615 294.28467,533.3347 Q303.8725,534.5532 309.56332,535.2766 Q315.25415,536.0 318.20047,536.78674 Q321.1468,537.5734 322.0734,538.03674 Q323.0,538.5 317.68445,538.25 Q312.3689,538.0 296.9807,537.4523 Q281.59253,536.9045 261.12283,536.4523 Q240.65314,536.0 222.72751,536.8623 Q204.8019,537.7247 192.46333,540.47174 Q180.12477,543.2188 175.16353,545.2086 Q170.20229,547.1985 168.60114,549.1836 Q167.0,551.16864 169.15924,554.2435 Q171.31848,557.3185 180.79819,562.3148 Q190.27791,567.31116 210.9265,573.3373 Q231.57509,579.36346 259.47504,582.7731 Q287.37497,586.1827 311.91388,588.3744 Q336.45276,590.56604 355.5644,590.783 Q374.67606,591.0 388.4085,591.5582 Q402.14093,592.1165 411.5102,592.8353 Q420.8795,593.5542 427.3508,594.0593 Q433.8221,594.56445 437.4815,594.7822 Q441.14087,595.0 441.7883,595.0 Q442.43573,595.0 435.11737,593.71246 Q427.79904,592.4249 403.3202,591.93384 Q378.8413,591.4428 348.7188,591.7682 Q318.5963,592.09357 289.42163,594.1142 Q260.24695,596.1348 239.05826,596.86536 Q217.86957,597.5959 203.66486,599.0952 Q189.46014,600.59454 182.59937,601.57996 Q175.7386,602.56537 173.08447,603.0675 Q170.43033,603.5697 170.5953,604.9253 Q170.76027,606.2808 174.8844,609.2857 Q179.00851,612.2906 189.5026,617.6445 Q199.99669,622.99835 207.45757,627.6665 Q214.91844,632.3347 217.53394,635.24207 Q220.14944,638.1495 219.18701,641.18494 Q218.22456,644.22034 211.66919,647.44293 Q205.11383,650.6655 198.34383,653.4038 Q191.57382,656.1421 187.1565,658.4188 Q182.73915,660.69556 180.08824,663.97314 Q177.43733,667.2507 177.79337,671.8494 Q178.1494,676.4482 183.36697,684.2372 Q188.58456,692.0261 200.69415,702.1235 Q212.80374,712.2208 222.17946,716.39514 Q231.55518,720.5694 239.6607,716.60364 Q247.76625,712.63794 253.78949,693.9638 Q259.81274,675.2897 259.23694,644.0817 Q258.66113,612.8738 252.83572,581.3176 Q247.01033,549.76154 238.18976,519.153 Q229.36919,488.5445 217.32619,461.3353 Q205.28319,434.1261 194.9938,417.62103 Q184.70444,401.116 177.90088,395.97748 Q171.09732,390.83893 166.89597,392.07214 Q162.69461,393.30536 158.8473,405.40268 Q155.0,417.5 161.19682,453.1357 Q167.39365,488.77142 177.05597,525.46454 Q186.71829,562.15765 196.67813,600.5729 Q206.63795,638.98804 217.96368,677.58704 Q229.28943,716.1861 242.31267,748.2754 Q255.3359,780.36475 268.4832,803.6552 Q281.63046,826.9457 291.9662,838.3172 Q302.3019,849.6887 311.53406,850.76776 Q320.76624,851.8468 331.5807,845.2258 Q342.3951,838.60486 349.91235,822.22833 Q357.42963,805.8518 355.7776,783.8895 Q354.12552,761.9272 342.96387,739.14 Q331.8022,716.3529 311.58533,699.08704 Q291.36844,681.8211 262.41455,666.9501 Q233.46065,652.079 203.13986,639.6886 Q172.81909,627.2982 148.58218,613.06995 Q124.34527,598.8417 109.545105,582.5874 Q94.74495,566.3331 86.48918,547.0801 Q78.233406,527.82697 76.162445,503.86462 Q74.09148,479.90228 80.024,454.8859 Q85.95653,429.8695 96.5466,407.17053 Q107.13667,384.47156 119.40664,368.3975 Q131.6766,352.32343 137.69655,346.58954 Q143.71649,340.85565 145.6369,341.26382 Q147.55733,341.672 148.27866,355.38583 Q149.0,369.09967 147.42368,404.50018 Q145.84734,439.9007 146.01553,480.87933 Q146.18372,521.858 151.19104,567.6233 Q156.19838,613.3887 162.24945,664.9352 Q168.3005,716.4817 170.15025,770.5262 Q172.0,824.5707 172.27902,872.0628 Q172.55806,919.55493 175.70125,959.8019 Q178.84444,1000.0488 184.69606,1029.3242 Q190.54768,1058.5995 197.77383,1074.5498 L204.99998,1090.5 " fill="none" stroke="#000000" stroke-width="12.0" stroke-linecap="round"/><path d="M159.0,710.0 Q159.0,710.0 170.55965,717.1542 Q182.1193,724.30835 196.0154,732.1321 Q209.9115,739.95575 218.30334,742.78577 Q226.6952,745.6158 230.47028,746.43054 Q234.24533,747.24536 236.12267,747.6227 Q238.0,748.0 227.11932,746.5 Q216.23866,745.0 201.40057,745.0 Q186.56248,745.0 176.98325,746.59937 Q167.404,748.19867 163.63359,750.1677 Q159.86317,752.13684 158.43158,753.6426 Q157.0,755.1484 159.12642,757.419 Q161.25284,759.68964 168.60243,762.395 Q175.95203,765.10046 188.85283,767.61304 Q201.75363,770.1256 211.56967,771.06287 Q221.38573,772.00006 227.33089,773.0 Q233.27605,774.0 236.21527,774.28864 Q239.1545,774.5773 240.07724,775.03864 Q241.0,775.5 235.59312,775.25 Q230.18625,775.0 214.77077,776.28815 Q199.35529,777.5763 188.08102,779.08765 Q176.80678,780.59906 171.68768,782.10345 Q166.56859,783.60785 164.99878,785.66046 Q163.42897,787.7131 164.88239,792.1084 Q166.33582,796.50366 175.3226,803.2197 Q184.30939,809.9358 202.9414,820.397 Q221.57343,830.8582 245.43106,842.1082 Q269.2887,853.3582 290.9908,859.9331 Q312.69293,866.50793 325.6562,870.3314 Q338.61948,874.1549 342.87173,875.35846 Q347.124,876.562 349.062,876.781 Q351.0,877.00006 347.57245,876.7246 Q344.1449,876.44916 326.6192,874.3646 Q309.0935,872.28 276.74442,869.85815 Q244.39532,867.43634 212.8058,866.64453 Q181.21628,865.85266 154.40137,863.088 Q127.58644,860.32336 109.85051,858.1266 Q92.11458,855.9299 84.12906,854.6793 Q76.14355,853.4287 73.48389,852.9204 Q70.824234,852.4121 71.98875,852.20605 Q73.15326,852.0 85.355225,852.78894 Q97.55719,853.57794 122.35722,855.65454 Q147.15726,857.7311 171.93033,861.77386 Q196.7034,865.81665 210.13474,870.26447 Q223.56609,874.7123 228.16821,876.1512 Q232.77034,877.5901 234.16801,878.5779 Q235.56569,879.5657 236.03284,880.03284 Q236.5,880.5 228.2813,880.75 Q220.06259,881.0 210.5313,881.75 Q201.0,882.5 194.88783,882.528 Q188.77567,882.556 185.32573,883.3402 Q181.8758,884.1243 179.9379,885.31213 Q178.0,886.5 181.18338,889.37225 Q184.36676,892.2445 196.81259,896.99866 Q209.25842,901.7528 221.03795,905.42175 Q232.81747,909.0907 236.97824,911.61487 Q241.13902,914.13904 240.3698,916.4693 Q239.60057,918.79956 233.06342,922.9203 Q226.52625,927.041 214.83533,933.2772 Q203.1444,939.5135 196.206,944.4116 Q189.26761,949.30975 187.6338,954.04755 Q186.0,958.78534 192.95184,965.90625 Q199.90367,973.0271 219.4728,979.792 Q239.04192,986.5569 263.45435,991.14514 Q287.86676,995.7334 314.73172,997.8667 Q341.59668,1000.0 361.88855,1000.0 Q382.18042,1000.0 387.13965,1000.0 Q392.0989,1000.0 390.62543,998.93036 Q389.15198,997.8607 364.3136,995.36725 Q339.4752,992.8738 294.35443,990.3906 Q249.23369,987.9075 200.3211,984.5242 Q151.40852,981.14087 109.84742,975.41925 Q68.286316,969.69763 40.696133,966.02673 Q13.1059475,962.35583 6.5529737,961.6779 L0.0,961.0 " fill="none" stroke="#000000" stroke-width="12.0" stroke-linecap="round"/></svg>